<svg xmlns="http://www.w3.org/2000/svg" id="Layer_2" data-name="Layer 2" viewBox="0 0 330.35 194.8"><defs><style>      .cls-1 {        fill: #fff;        stroke: #231f20;        stroke-miterlimit: 10;        stroke-width: 2px;      }      .cls-2, .cls-3, .cls-4 {        stroke-width: 0px;      }      .cls-3 {        fill: #231f20;      }      .cls-4 {        fill: #fbe000;      }    </style></defs><g id="Layer_1-2" data-name="Layer 1"><g><polygon class="cls-2" points="21.19 35.1 165.61 0 309.17 35.1 309.17 157.49 165.61 194.8 21.19 157.28 21.19 35.1"></polygon><polygon class="cls-2" points="0 45.79 165.18 4.99 330.35 45.79 330.35 147.01 165.18 189.39 0 147.01 0 45.79"></polygon><polygon class="cls-4" points="5 50.79 165.18 9.99 325.35 50.79 325.35 142.01 165.18 184.39 5 142.01 5 50.79"></polygon><g><g><path class="cls-3" d="m38.36,104.72v7.47h100.94v-57.83c0-2.15,1.73-3.88,3.87-3.88h8.99l3.32-7.08h-16.18c-4.63,0-8.39,3.76-8.39,8.39v1.12c-32.54,0-51.73,7.26-51.73,16.22h16.16l-.96,1.16h-11.22c-2.38,0-4.56,1.34-5.63,3.46l-8.97,17.75-24.41,5.88c-3.39.82-5.79,3.86-5.79,7.35Zm61.9-30.42h6.41c1.25,0,2.26,1.02,2.26,2.26v11.11c0,1.25-1.01,2.26-2.26,2.26h-6.41v-15.64Zm-26.54,15.64c1.71-3.34,4.4-8.6,6.21-12.09,1.13-2.18,3.39-3.55,5.85-3.55h12.05v15.64h-24.11Z"></path><g><path class="cls-3" d="m273.51,104.14h-17.74l-2.63,8.04h-17.51l19.47-53.22h19.24l19.39,53.22h-17.59l-2.63-8.04Zm-4.06-12.55l-4.81-14.81-4.81,14.81h9.62Z"></path><path class="cls-3" d="m197.63,58.96v53.22h-16.69v-20.75h-15.86v20.75h-16.69v-53.22h16.69v19.17h15.86v-19.17h16.69Z"></path><path class="cls-1" d="m234.51,63.09c4.18,2.18,7.4,5.22,9.66,9.1,2.26,3.88,3.38,8.3,3.38,13.24s-1.13,9.31-3.38,13.24c-2.26,3.93-5.48,7.02-9.66,9.28-4.19,2.26-9.06,3.38-14.62,3.38h-22.18v-51.52h22.18c5.56,0,10.44,1.09,14.62,3.27Zm-7.18,30.85c2.2-1.99,3.31-4.83,3.31-8.51s-1.1-6.52-3.31-8.51c-2.21-1.99-5.19-2.98-8.95-2.98h-3.98v23h3.98c3.76,0,6.74-.99,8.95-2.98Z"></path></g></g><g><path class="cls-3" d="m47.45,124.6v13.64h-3.32v-5.61h-5.17v5.61h-3.32v-13.64h3.32v5.34h5.17v-5.34h3.32Z"></path><path class="cls-3" d="m49.52,129.86c.42-.84.99-1.49,1.72-1.94.73-.45,1.54-.68,2.43-.68.76,0,1.43.16,2.01.47.58.31,1.02.72,1.33,1.22v-1.54h3.32v10.84h-3.32v-1.53c-.32.5-.77.91-1.35,1.22-.58.31-1.25.47-2.01.47-.88,0-1.68-.23-2.41-.69-.73-.46-1.3-1.11-1.72-1.96-.42-.85-.63-1.83-.63-2.94s.21-2.09.63-2.93Zm6.8.99c-.46-.48-1.02-.72-1.68-.72s-1.22.24-1.68.71c-.46.47-.69,1.12-.69,1.95s.23,1.49.69,1.97c.46.49,1.02.73,1.68.73s1.22-.24,1.68-.72.69-1.13.69-1.96-.23-1.48-.69-1.96Z"></path><path class="cls-3" d="m67.22,127.79c.58-.34,1.23-.51,1.94-.51v3.52h-.91c-.83,0-1.45.18-1.86.53-.41.36-.62.98-.62,1.87v5.03h-3.32v-10.84h3.32v1.81c.39-.6.87-1.07,1.46-1.41Z"></path><path class="cls-3" d="m81.54,127.39l-6.8,15.99h-3.57l2.49-5.52-4.41-10.47h3.71l2.51,6.78,2.49-6.78h3.59Z"></path><path class="cls-3" d="m82.42,129.86c.42-.84.99-1.49,1.72-1.94.73-.45,1.54-.68,2.43-.68.76,0,1.43.16,2.01.47.58.31,1.02.72,1.33,1.22v-1.54h3.32v10.84h-3.32v-1.53c-.32.5-.77.91-1.35,1.22-.58.31-1.25.47-2.01.47-.88,0-1.68-.23-2.41-.69-.73-.46-1.3-1.11-1.72-1.96-.42-.85-.63-1.83-.63-2.94s.21-2.09.63-2.93Zm6.8.99c-.46-.48-1.02-.72-1.68-.72s-1.22.24-1.68.71c-.46.47-.69,1.12-.69,1.95s.23,1.49.69,1.97c.46.49,1.02.73,1.68.73s1.22-.24,1.68-.72.69-1.13.69-1.96-.23-1.48-.69-1.96Z"></path><path class="cls-3" d="m105,128.51c.76.82,1.14,1.95,1.14,3.39v6.33h-3.3v-5.89c0-.73-.19-1.29-.56-1.69-.38-.4-.88-.6-1.52-.6s-1.14.2-1.52.6c-.38.4-.56.97-.56,1.69v5.89h-3.32v-10.84h3.32v1.44c.34-.48.79-.86,1.36-1.14.57-.28,1.21-.42,1.92-.42,1.27,0,2.28.41,3.04,1.23Z"></path><path class="cls-3" d="m108.12,129.86c.42-.84.99-1.49,1.72-1.94.73-.45,1.54-.68,2.43-.68.76,0,1.43.16,2.01.47.58.31,1.02.72,1.33,1.22v-1.54h3.32v10.84h-3.32v-1.53c-.32.5-.77.91-1.35,1.22-.58.31-1.25.47-2.01.47-.88,0-1.68-.23-2.41-.69-.73-.46-1.3-1.11-1.72-1.96-.42-.85-.63-1.83-.63-2.94s.21-2.09.63-2.93Zm6.8.99c-.46-.48-1.02-.72-1.68-.72s-1.22.24-1.68.71c-.46.47-.69,1.12-.69,1.95s.23,1.49.69,1.97c.46.49,1.02.73,1.68.73s1.22-.24,1.68-.72.69-1.13.69-1.96-.23-1.48-.69-1.96Z"></path><path class="cls-3" d="m133.76,125.45c1.08.57,1.91,1.37,2.5,2.4.59,1.03.88,2.22.88,3.56s-.3,2.52-.88,3.56c-.59,1.04-1.42,1.84-2.51,2.41s-2.34.85-3.76.85h-5.11v-13.64h5.11c1.44,0,2.69.28,3.77.85Zm-1.05,8.88c.7-.69,1.05-1.66,1.05-2.91s-.35-2.23-1.05-2.93c-.7-.7-1.68-1.05-2.93-1.05h-1.57v7.93h1.57c1.26,0,2.23-.34,2.93-1.03Z"></path><path class="cls-3" d="m143.49,127.79c.58-.34,1.23-.51,1.94-.51v3.52h-.91c-.83,0-1.45.18-1.86.53-.41.36-.62.98-.62,1.87v5.03h-3.32v-10.84h3.32v1.81c.39-.6.87-1.07,1.46-1.41Z"></path><path class="cls-3" d="m146.98,125.75c-.37-.34-.55-.77-.55-1.27s.18-.95.55-1.29c.37-.34.84-.51,1.43-.51s1.04.17,1.41.51c.37.34.55.77.55,1.29s-.18.93-.55,1.27c-.37.34-.84.51-1.41.51s-1.06-.17-1.43-.51Zm3.08,1.64v10.84h-3.32v-10.84h3.32Z"></path><path class="cls-3" d="m157.05,135.13l2.35-7.73h3.54l-3.85,10.84h-4.1l-3.85-10.84h3.56l2.35,7.73Z"></path><path class="cls-3" d="m164.29,125.75c-.37-.34-.55-.77-.55-1.27s.18-.95.55-1.29c.37-.34.84-.51,1.43-.51s1.04.17,1.41.51c.37.34.55.77.55,1.29s-.18.93-.55,1.27c-.37.34-.84.51-1.41.51s-1.06-.17-1.43-.51Zm3.08,1.64v10.84h-3.32v-10.84h3.32Z"></path><path class="cls-3" d="m179.13,128.51c.76.82,1.14,1.95,1.14,3.39v6.33h-3.3v-5.89c0-.73-.19-1.29-.56-1.69-.38-.4-.88-.6-1.52-.6s-1.14.2-1.52.6c-.38.4-.56.97-.56,1.69v5.89h-3.32v-10.84h3.32v1.44c.34-.48.79-.86,1.36-1.14.57-.28,1.21-.42,1.92-.42,1.27,0,2.28.41,3.04,1.23Z"></path><path class="cls-3" d="m188.41,127.71c.58.31,1.02.72,1.33,1.22v-1.54h3.32v10.82c0,1-.2,1.9-.59,2.71s-1,1.45-1.81,1.93c-.81.48-1.82.72-3.02.72-1.61,0-2.91-.38-3.9-1.14-1-.76-1.57-1.78-1.71-3.08h3.28c.1.41.35.74.74.98.39.24.87.36,1.44.36.69,0,1.23-.2,1.64-.59.41-.4.61-1.03.61-1.89v-1.54c-.32.5-.77.92-1.34,1.23s-1.24.48-2,.48c-.89,0-1.7-.23-2.43-.69-.73-.46-1.3-1.11-1.72-1.96-.42-.85-.63-1.83-.63-2.94s.21-2.09.63-2.93c.42-.84.99-1.49,1.72-1.94.73-.45,1.54-.68,2.43-.68.76,0,1.43.16,2.01.47Zm.64,3.15c-.46-.48-1.02-.72-1.68-.72s-1.22.24-1.68.71c-.46.47-.69,1.12-.69,1.95s.23,1.49.69,1.97c.46.49,1.02.73,1.68.73s1.22-.24,1.68-.72.69-1.13.69-1.96-.23-1.48-.69-1.96Z"></path><path class="cls-3" d="m207.5,135.83h-5.09l-.82,2.41h-3.48l4.93-13.64h3.85l4.93,13.64h-3.52l-.82-2.41Zm-.85-2.56l-1.69-4.99-1.67,4.99h3.36Z"></path><path class="cls-3" d="m213.07,129.86c.46-.84,1.1-1.49,1.92-1.94.82-.45,1.76-.68,2.83-.68,1.36,0,2.5.36,3.41,1.07.91.71,1.51,1.72,1.8,3.01h-3.54c-.3-.83-.87-1.24-1.73-1.24-.61,0-1.09.24-1.46.71-.36.47-.54,1.15-.54,2.03s.18,1.56.54,2.03c.36.47.85.71,1.46.71.86,0,1.43-.41,1.73-1.24h3.54c-.29,1.27-.89,2.27-1.81,2.99-.92.73-2.05,1.09-3.4,1.09-1.06,0-2-.23-2.83-.68-.82-.45-1.46-1.1-1.92-1.94-.46-.84-.69-1.83-.69-2.95s.23-2.11.69-2.95Z"></path><path class="cls-3" d="m224.47,129.86c.42-.84.99-1.49,1.72-1.94.73-.45,1.54-.68,2.43-.68.76,0,1.43.16,2.01.47.58.31,1.02.72,1.33,1.22v-1.54h3.32v10.84h-3.32v-1.53c-.32.5-.77.91-1.35,1.22-.58.31-1.25.47-2.01.47-.88,0-1.68-.23-2.41-.69-.73-.46-1.3-1.11-1.72-1.96-.42-.85-.63-1.83-.63-2.94s.21-2.09.63-2.93Zm6.8.99c-.46-.48-1.02-.72-1.68-.72s-1.22.24-1.68.71c-.46.47-.69,1.12-.69,1.95s.23,1.49.69,1.97c.46.49,1.02.73,1.68.73s1.22-.24,1.68-.72.69-1.13.69-1.96-.23-1.48-.69-1.96Z"></path><path class="cls-3" d="m237.37,129.86c.42-.84.99-1.49,1.72-1.94.73-.45,1.54-.68,2.43-.68.71,0,1.36.15,1.95.45.59.3,1.05.7,1.39,1.2v-5.03h3.32v14.38h-3.32v-1.55c-.31.52-.75.93-1.33,1.24-.58.31-1.25.47-2.01.47-.89,0-1.7-.23-2.43-.69-.73-.46-1.3-1.11-1.72-1.96-.42-.85-.63-1.83-.63-2.94s.21-2.09.63-2.93Zm6.8.99c-.46-.48-1.02-.72-1.68-.72s-1.22.24-1.68.71c-.46.47-.69,1.12-.69,1.95s.23,1.49.69,1.97c.46.49,1.02.73,1.68.73s1.22-.24,1.68-.72.69-1.13.69-1.96-.23-1.48-.69-1.96Z"></path><path class="cls-3" d="m260.46,133.61h-7.52c.05.67.27,1.19.65,1.54.38.36.85.53,1.41.53.83,0,1.4-.35,1.73-1.05h3.54c-.18.71-.51,1.35-.98,1.92s-1.07,1.02-1.78,1.34c-.71.32-1.51.49-2.39.49-1.06,0-2.01-.23-2.84-.68-.83-.45-1.48-1.1-1.94-1.94-.47-.84-.7-1.83-.7-2.95s.23-2.11.69-2.95c.46-.84,1.1-1.49,1.93-1.94.83-.45,1.78-.68,2.86-.68s1.98.22,2.8.66c.82.44,1.45,1.07,1.91,1.88.46.82.69,1.77.69,2.86,0,.31-.02.64-.06.97Zm-3.34-1.85c0-.57-.19-1.02-.58-1.36s-.87-.51-1.46-.51-1.03.16-1.41.49c-.38.32-.62.78-.71,1.38h4.16Z"></path><path class="cls-3" d="m279.02,128.5c.8.82,1.2,1.95,1.2,3.4v6.33h-3.3v-5.89c0-.7-.18-1.24-.55-1.62-.37-.38-.88-.57-1.52-.57s-1.16.19-1.53.57c-.37.38-.55.92-.55,1.62v5.89h-3.3v-5.89c0-.7-.18-1.24-.55-1.62-.37-.38-.88-.57-1.53-.57s-1.16.19-1.53.57c-.37.38-.55.92-.55,1.62v5.89h-3.32v-10.84h3.32v1.36c.34-.45.78-.81,1.32-1.08.54-.27,1.16-.4,1.85-.4.82,0,1.54.17,2.18.52s1.14.85,1.51,1.5c.38-.6.89-1.08,1.54-1.46.65-.38,1.35-.56,2.12-.56,1.35,0,2.42.41,3.22,1.22Z"></path><path class="cls-3" d="m293.33,127.39l-6.8,15.99h-3.57l2.49-5.52-4.41-10.47h3.71l2.51,6.78,2.49-6.78h3.59Z"></path></g><path class="cls-3" d="m290.67,121.36H35.61c0-1.69,1.37-3.06,3.06-3.06h255.05c0,1.69-1.37,3.06-3.06,3.06Z"></path></g></g></g></svg>